name Walk8.mot
datacolumns 19
datarows 20
range 2.27000000 2.36500000
endheader

                time	   L_ground_force_vx	   L_ground_force_vy	   L_ground_force_vz	   L_ground_force_px	   L_ground_force_py	   L_ground_force_pz	   R_ground_force_vx	   R_ground_force_vy	   R_ground_force_vz	   R_ground_force_px	   R_ground_force_py	   R_ground_force_pz	   L_ground_torque_x	   L_ground_torque_y	   L_ground_torque_z	   R_ground_torque_x	   R_ground_torque_y	   R_ground_torque_z	
          2.27000000	          0.00000014	          0.00000059	         -0.00000002	         -0.00000000	          0.00000000	         -0.00000000	         16.26101885	         62.16619624	          4.30485863	          0.11198570	          0.00000000	          0.03922808	          0.00000000	          0.00000000	          0.00000000	          0.00000000	         -4.31141332	          0.00000000	
          2.27500000	          0.00000008	          0.00000042	         -0.00000001	         -0.00000000	          0.00000000	         -0.00000000	         10.58493851	         38.36047846	          3.65951928	          0.09203775	          0.00000000	          0.03206208	          0.00000000	          0.00000000	          0.00000000	          0.00000000	         -3.01260960	          0.00000000	
          2.28000000	          0.00000004	          0.00000028	         -0.00000001	         -0.00000000	          0.00000000	         -0.00000000	          6.10799903	         20.06396665	          2.95618199	          0.07200643	          0.00000000	          0.02494555	          0.00000000	          0.00000000	          0.00000000	          0.00000000	         -1.94161924	          0.00000000	
          2.28500000	          0.00000001	          0.00000017	         -0.00000001	         -0.00000000	          0.00000000	         -0.00000000	          2.75395560	          6.74395090	          2.27134716	          0.05346590	          0.00000000	          0.01840896	          0.00000000	          0.00000000	          0.00000000	          0.00000000	         -1.10125526	          0.00000000	
          2.29000000	         -0.00000002	          0.00000008	         -0.00000000	         -0.00000000	          0.00000000	         -0.00000000	          0.38526793	         -2.33128214	          1.65253975	          0.03734771	          0.00000000	          0.01276125	          0.00000000	          0.00000000	          0.00000000	          0.00000000	         -0.47525015	          0.00000000	
          2.29500000	         -0.00000003	          0.00000002	         -0.00000000	         -0.00000000	          0.00000000	         -0.00000000	         -1.16419562	         -7.96667705	          1.12501463	          0.02405768	          0.00000000	          0.00813022	          0.00000000	         -0.00000000	          0.00000000	          0.00000000	         -0.03621865	          0.00000000	
          2.30000000	         -0.00000003	         -0.00000002	          0.00000000	         -0.00000000	          0.00000000	         -0.00000000	         -2.06576278	        -10.95047881	          0.69774794	          0.01363236	          0.00000000	          0.00451743	          0.00000000	         -0.00000000	          0.00000000	          0.00000000	          0.24818820	          0.00000000	
          2.30500000	         -0.00000003	         -0.00000004	          0.00000000	         -0.00000000	          0.00000000	         -0.00000000	         -2.48054348	        -11.99788261	          0.36856666	          0.00586866	          0.00000000	          0.00184334	          0.00000000	         -0.00000000	          0.00000000	          0.00000000	          0.41094411	          0.00000000	
          2.31000000	         -0.00000003	         -0.00000006	          0.00000000	         -0.00000000	          0.00000000	         -0.00000000	         -2.55035331	        -11.72067493	          0.12831992	          0.00042580	          0.00000000	         -0.00001728	          0.00000000	         -0.00000000	          0.00000000	          0.00000000	          0.48281562	          0.00000000	
          2.31500000	         -0.00000003	         -0.00000006	          0.00000000	         -0.00000000	          0.00000000	         -0.00000000	         -2.39341889	        -10.61594335	         -0.03589422	         -0.00309827	          0.00000000	         -0.00120910	          0.00000000	         -0.00000000	          0.00000000	          0.00000000	          0.49072055	          0.00000000	
          2.32000000	         -0.00000002	         -0.00000006	          0.00000000	         -0.00000000	          0.00000000	         -0.00000000	         -2.10348940	         -9.06790763	         -0.13836276	         -0.00511315	          0.00000000	         -0.00187776	          0.00000000	         -0.00000000	          0.00000000	          0.00000000	          0.45697976	          0.00000000	
          2.32500000	         -0.00000002	         -0.00000005	          0.00000000	          0.00000000	          0.00000000	          0.00000000	         -1.75120265	         -7.35802046	         -0.19313103	         -0.00600087	          0.00000000	         -0.00215806	          0.00000000	         -0.00000000	          0.00000000	          0.00000000	          0.39920088	          0.00000000	
          2.33000000	         -0.00000001	         -0.00000004	          0.00000000	          0.00000000	          0.00000000	          0.00000000	         -1.38678903	         -5.67957249	         -0.21297854	         -0.00609555	          0.00000000	         -0.00216713	          0.00000000	         -0.00000000	          0.00000000	          0.00000000	          0.33057643	          0.00000000	
          2.33500000	         -0.00000001	         -0.00000003	          0.00000000	          0.00000000	          0.00000000	          0.00000000	         -1.04341939	         -4.15403081	         -0.20886233	         -0.00567418	          0.00000000	         -0.00200155	          0.00000000	         -0.00000000	          0.00000000	          0.00000000	          0.26042431	          0.00000000	
          2.34000000	         -0.00000001	         -0.00000003	          0.00000000	          0.00000000	          0.00000000	          0.00000000	         -0.74070123	         -2.84719688	         -0.18970420	         -0.00495521	          0.00000000	         -0.00173707	          0.00000000	         -0.00000000	          0.00000000	          0.00000000	          0.19484070	          0.00000000	
          2.34500000	         -0.00000000	         -0.00000002	          0.00000000	          0.00000000	          0.00000000	          0.00000000	         -0.48799343	         -1.78397074	         -0.16241515	         -0.00410225	          0.00000000	         -0.00143008	          0.00000000	         -0.00000000	          0.00000000	          0.00000000	          0.13737365	          0.00000000	
          2.35000000	         -0.00000000	         -0.00000001	          0.00000000	          0.00000000	          0.00000000	          0.00000000	         -0.28734243	         -0.96105391	         -0.13207014	         -0.00323082	          0.00000000	         -0.00112012	          0.00000000	         -0.00000000	          0.00000000	          0.00000000	          0.08965656	          0.00000000	
          2.35500000	         -0.00000000	         -0.00000001	          0.00000000	          0.00000000	          0.00000000	          0.00000000	         -0.13594353	         -0.35732554	         -0.10216532	         -0.00241647	          0.00000000	         -0.00083275	          0.00000000	         -0.00000000	          0.00000000	          0.00000000	          0.05196576	          0.00000000	
          2.36000000	          0.00000000	         -0.00000000	          0.00000000	          0.00000000	          0.00000000	          0.00000000	         -0.02810285	          0.05809390	         -0.07490790	         -0.00170313	          0.00000000	         -0.00058261	          0.00000000	         -0.00000000	          0.00000000	          0.00000000	          0.02368552	          0.00000000	
          2.36500000	          0.00000000	         -0.00000000	          0.00000000	          0.00000000	          0.00000000	          0.00000000	          0.04327588	          0.31989981	         -0.05150393	         -0.00111099	          0.00000000	         -0.00037612	          0.00000000	          0.00000000	          0.00000000	          0.00000000	          0.00367671	          0.00000000	
